<svg xmlns="http://www.w3.org/2000/svg" xmlns:xlink="http://www.w3.org/1999/xlink" viewBox="0 0 185.91 148.27"><defs><linearGradient id="a" x1="89.84" y1="112.5" x2="89.84" gradientUnits="userSpaceOnUse"><stop offset="0" stop-color="#66952e"/><stop offset="1" stop-color="#8bc53f"/></linearGradient><clipPath id="b"><rect x="33.47" y="86.88" width="111" height="35" style="fill:none"/></clipPath><linearGradient id="c" x1="89.84" y1="104.75" x2="89.84" y2="7.75" xlink:href="#a"/><linearGradient id="d" x1="89.67" y1="86.88" x2="89.67" y2="44.66" gradientUnits="userSpaceOnUse"><stop offset="0" stop-color="#7b6541"/><stop offset="1" stop-color="#b99664"/></linearGradient><linearGradient id="e" x1="89.67" y1="61.79" x2="89.67" y2="12.88" xlink:href="#a"/></defs><circle cx="89.84" cy="56.25" r="54.25" style="fill:none;stroke-miterlimit:10;stroke-width:4px;stroke:url(#a)"/><g style="clip-path:url(#b)"><circle cx="89.84" cy="56.25" r="48.5" style="fill:url(#c)"/></g><path d="M89.67,52A3.69,3.69,0,1,0,86,48.36,3.69,3.69,0,0,0,89.67,52Zm14.68-3.26c-6.66.71-12.2,9.16-14.68,14.63-2.48-5.47-8-13.91-14.68-14.63s16.06,12.61,9,38.08H95.37C88.29,61.41,111,48.08,104.35,48.79Z" style="fill:url(#d)"/><path d="M70.35,31.06s.11-3.75-2.14-6-6-2.13-6-2.13-.11,3.75,2.14,6S70.35,31.06,70.35,31.06ZM57,56.31c-3.07.82-4.85,4.13-4.85,4.13s3.2,2,6.26,1.15,4.85-4.13,4.85-4.13S60.08,55.49,57,56.31Zm0-11.84c3.07.82,6.27-1.15,6.27-1.15S61.49,40,58.42,39.18s-6.26,1.15-6.26,1.15S53.94,43.64,57,44.46ZM82.6,24s2-3.2,1.15-6.26-4.13-4.85-4.13-4.85-2,3.2-1.15,6.26S82.6,24,82.6,24Zm18.28-4.85c.82-3.07-1.15-6.26-1.15-6.26s-3.31,1.78-4.13,4.85S96.75,24,96.75,24,100.05,22.21,100.88,19.14Zm21.46,25.33c3.07-.82,4.85-4.13,4.85-4.13s-3.2-2-6.26-1.15-4.85,4.13-4.85,4.13S119.27,45.29,122.34,44.47ZM115,28.93c2.24-2.25,2.13-6,2.13-6s-3.75-.11-6,2.13-2.14,6-2.14,6S112.75,31.17,115,28.93Zm-37.15,1s-1.08,3.6.51,6.35,5.24,3.62,5.24,3.62,1.08-3.6-.51-6.35S77.85,29.91,77.85,29.91ZM118,52s-2.58-2.73-5.75-2.73S106.47,52,106.47,52s2.58,2.73,5.75,2.73S118,52,118,52Zm-7.83-13.48s-3.6-1.08-6.35.51-3.62,5.24-3.62,5.24,3.6,1.08,6.35-.51S110.15,38.57,110.15,38.57Zm12.19,17.75c-3.07-.82-6.27,1.15-6.27,1.15s1.78,3.31,4.85,4.13,6.26-1.15,6.26-1.15S125.4,57.13,122.34,56.31ZM89.67,26.75s-2.73,2.58-2.73,5.75,2.73,5.75,2.73,5.75,2.73-2.58,2.73-5.75S89.67,26.75,89.67,26.75Zm11.82,3.17s-3.65.87-5.24,3.62-.51,6.35-.51,6.35S99.39,39,101,36.26,101.49,29.91,101.49,29.91ZM75.55,39.08c-2.75-1.59-6.35-.51-6.35-.51s.87,3.65,3.62,5.24,6.35.51,6.35.51S78.3,40.66,75.55,39.08ZM67.12,49.32c-3.18,0-5.75,2.73-5.75,2.73s2.58,2.73,5.75,2.73S72.87,52,72.87,52,70.29,49.32,67.12,49.32Z" style="fill:url(#e)"/><path d="M1.87,125.06H1q-1,0-1-1t.94-1H5.58a16,16,0,0,1,10.32,3.33q4,3.3,4,9.26t-4,9.13q-4,3.16-10.55,3.16H.94q-.94,0-.94-1t.94-1h.94Zm2.22.19v20.4q0,.47,1.93.47a14.41,14.41,0,0,0,4-.6,13.76,13.76,0,0,0,3.86-1.79,8.4,8.4,0,0,0,2.83-3.28,11.49,11.49,0,0,0,1.05-5.21A9.71,9.71,0,0,0,16,129.58q-3.31-4.8-10.22-4.8Q4.09,124.79,4.09,125.25Z" style="fill:#693"/><path d="M29.13,148.27a6.84,6.84,0,0,1-5.69-2.77,12.8,12.8,0,0,1-.1-14,6.46,6.46,0,0,1,5.4-2.69,6.23,6.23,0,0,1,3.08.76,5.87,5.87,0,0,1,2.11,1.89,7.87,7.87,0,0,1,1.56,4.37q0,1.09-1,1.09H23.56a11.83,11.83,0,0,0,1.54,7.33,4.8,4.8,0,0,0,4,2.3,3.39,3.39,0,0,0,1.91-.57,4.24,4.24,0,0,0,1.21-1.09,13.63,13.63,0,0,0,.8-1.42,1.36,1.36,0,0,1,1.23-.9q1.17,0,1.17,1.05a4.53,4.53,0,0,1-1.74,3A6.36,6.36,0,0,1,29.13,148.27Zm2.69-16.34a4.08,4.08,0,0,0-6.16-.08A7.62,7.62,0,0,0,24,134.93h9.24A5.41,5.41,0,0,0,31.82,131.92Z" style="fill:#693"/><path d="M44.11,148.27a6.84,6.84,0,0,1-5.69-2.77,12.8,12.8,0,0,1-.1-14,6.46,6.46,0,0,1,5.4-2.69,6.23,6.23,0,0,1,3.08.76,5.87,5.87,0,0,1,2.11,1.89,7.87,7.87,0,0,1,1.56,4.37q0,1.09-1,1.09H38.53a11.83,11.83,0,0,0,1.54,7.33,4.8,4.8,0,0,0,4,2.3,3.39,3.39,0,0,0,1.91-.57,4.24,4.24,0,0,0,1.21-1.09,13.63,13.63,0,0,0,.8-1.42,1.36,1.36,0,0,1,1.23-.9q1.17,0,1.17,1.05a4.53,4.53,0,0,1-1.74,3A6.36,6.36,0,0,1,44.11,148.27Zm2.69-16.34a4.08,4.08,0,0,0-6.16-.08A7.62,7.62,0,0,0,39,134.93H48.2A5.41,5.41,0,0,0,46.8,131.92Z" style="fill:#693"/><path d="M63.06,125.06h-.9q-1,0-1-1t.94-1h4.64a16,16,0,0,1,10.32,3.33q4,3.3,4,9.26t-4,9.13q-4,3.16-10.55,3.16H62.13q-.94,0-.94-1t.94-1h.94Zm2.22.19v20.4q0,.47,1.93.47a14.41,14.41,0,0,0,4-.6,13.76,13.76,0,0,0,3.86-1.79,8.4,8.4,0,0,0,2.83-3.28A11.49,11.49,0,0,0,79,135.24a9.71,9.71,0,0,0-1.75-5.65q-3.31-4.8-10.22-4.8Q65.28,124.79,65.28,125.25Z" style="fill:#693"/><path d="M90.32,148.27a6.84,6.84,0,0,1-5.69-2.77,12.8,12.8,0,0,1-.1-14,6.46,6.46,0,0,1,5.4-2.69,6.23,6.23,0,0,1,3.08.76,5.87,5.87,0,0,1,2.11,1.89,7.87,7.87,0,0,1,1.56,4.37q0,1.09-1,1.09H84.75a11.83,11.83,0,0,0,1.54,7.33,4.8,4.8,0,0,0,4,2.3,3.39,3.39,0,0,0,1.91-.57,4.24,4.24,0,0,0,1.21-1.09,13.63,13.63,0,0,0,.8-1.42,1.36,1.36,0,0,1,1.23-.9q1.17,0,1.17,1.05a4.53,4.53,0,0,1-1.74,3A6.36,6.36,0,0,1,90.32,148.27ZM93,131.92a4.08,4.08,0,0,0-6.16-.08,7.62,7.62,0,0,0-1.68,3.08h9.24A5.41,5.41,0,0,0,93,131.92Z" style="fill:#693"/><path d="M105.3,148.27a6.84,6.84,0,0,1-5.69-2.77,12.8,12.8,0,0,1-.1-14,6.46,6.46,0,0,1,5.4-2.69,6.23,6.23,0,0,1,3.08.76,5.87,5.87,0,0,1,2.11,1.89,7.87,7.87,0,0,1,1.56,4.37q0,1.09-1,1.09H99.72a11.83,11.83,0,0,0,1.54,7.33,4.8,4.8,0,0,0,4,2.3,3.39,3.39,0,0,0,1.91-.57,4.24,4.24,0,0,0,1.21-1.09,13.63,13.63,0,0,0,.8-1.42,1.36,1.36,0,0,1,1.23-.9q1.17,0,1.17,1.05a4.53,4.53,0,0,1-1.74,3A6.36,6.36,0,0,1,105.3,148.27ZM108,131.92a4.08,4.08,0,0,0-6.16-.08,7.62,7.62,0,0,0-1.68,3.08h9.24A5.41,5.41,0,0,0,108,131.92Z" style="fill:#693"/><path d="M138.49,141.5a1.32,1.32,0,0,1,.8-.29,1,1,0,0,1,.74.37,1.18,1.18,0,0,1,.33.8q0,1.91-2.42,3.9a8.58,8.58,0,0,1-5.62,2,9.49,9.49,0,0,1-7.39-3.3q-2.95-3.3-2.94-9.42t3-9.54a9,9,0,0,1,7-3.41,7.61,7.61,0,0,1,3.69.86,2.76,2.76,0,0,1,1.58,2.57,1.71,1.71,0,0,1-.37,1.09,1.43,1.43,0,0,1-1.19.47,2.19,2.19,0,0,1-1.54-.7,2.06,2.06,0,0,1-.72-1.48,2.5,2.5,0,0,1,.19-.66,4.64,4.64,0,0,0-1.79-.27q-3,0-5.27,3.08a12.56,12.56,0,0,0-2.26,7.64,15,15,0,0,0,.9,5.11,10.78,10.78,0,0,0,2.75,4.25,5.77,5.77,0,0,0,4,1.75,6.33,6.33,0,0,0,3.82-1.19,5.69,5.69,0,0,0,2.18-2.94A1.33,1.33,0,0,1,138.49,141.5Z" style="fill:#693"/><path d="M147.89,128.69a6.45,6.45,0,0,1,5.21,2.18,8.33,8.33,0,0,1,1.85,5.58,43.54,43.54,0,0,0,.39,7.27,4.15,4.15,0,0,0,1.48,2.67,1,1,0,0,1,.66.86q0,1-.94,1a2.45,2.45,0,0,1-1.77-.88,6.57,6.57,0,0,1-1.35-2.16,5.47,5.47,0,0,1-2.13,2.16,6.66,6.66,0,0,1-3.49.88,6.51,6.51,0,0,1-4.82-1.85,6.39,6.39,0,0,1-1.85-4.72,6.8,6.8,0,0,1,2-4.89,6.46,6.46,0,0,1,4.86-2,6.66,6.66,0,0,1,4.86,1.91,8.42,8.42,0,0,0-1.17-4.58,4,4,0,0,0-3.59-1.85q-2.42,0-3,1.33a3.62,3.62,0,0,1,.35,1.36,2,2,0,0,1-.47,1.17,1.39,1.39,0,0,1-1.15.62,1.22,1.22,0,0,1-1.07-.58,2.4,2.4,0,0,1-.39-1.36,3.55,3.55,0,0,1,1.62-2.87A6.42,6.42,0,0,1,147.89,128.69Zm-4.6,12.83a4.87,4.87,0,0,0,1.44,3.59,4.71,4.71,0,0,0,3.45,1.44,4.55,4.55,0,0,0,3.37-1.38,4.62,4.62,0,0,0,1.36-3.37v-.35a4.63,4.63,0,0,0-1.4-3.47,4.76,4.76,0,0,0-3.45-1.37,4.6,4.6,0,0,0-3.41,1.38A4.82,4.82,0,0,0,143.28,141.52Z" style="fill:#693"/><path d="M162.47,130.91v14.94h.74a.9.9,0,0,1,.72.29,1.06,1.06,0,0,1,.25.72q0,1-1,1h-3.71a1,1,0,0,1,0-2h.78V131.18h-.78a1,1,0,0,1-.78-.31,1.06,1.06,0,0,1-.27-.72,1,1,0,0,1,.27-.7,1,1,0,0,1,.78-.29h7.22a4.62,4.62,0,0,1,3,.84,2.64,2.64,0,0,1,1,2.13,2.29,2.29,0,0,1-.31,1.19,1.09,1.09,0,0,1-1,.53,1.66,1.66,0,0,1-1.27-.64,2.13,2.13,0,0,1-.58-1.36,2.94,2.94,0,0,1,.06-.92Z" style="fill:#693"/><path d="M179.55,148.27a6.84,6.84,0,0,1-5.69-2.77,12.8,12.8,0,0,1-.1-14,6.46,6.46,0,0,1,5.4-2.69,6.23,6.23,0,0,1,3.08.76,5.87,5.87,0,0,1,2.11,1.89,7.87,7.87,0,0,1,1.56,4.37q0,1.09-1,1.09H174a11.83,11.83,0,0,0,1.54,7.33,4.8,4.8,0,0,0,4,2.3,3.39,3.39,0,0,0,1.91-.57,4.24,4.24,0,0,0,1.21-1.09,13.63,13.63,0,0,0,.8-1.42,1.36,1.36,0,0,1,1.23-.9q1.17,0,1.17,1.05a4.53,4.53,0,0,1-1.74,3A6.36,6.36,0,0,1,179.55,148.27Zm2.69-16.34a4.08,4.08,0,0,0-6.16-.08,7.62,7.62,0,0,0-1.68,3.08h9.24A5.41,5.41,0,0,0,182.24,131.92Z" style="fill:#693"/></svg>